<mxfile host="app.diagrams.net" modified="2023-05-02T22:41:38.783Z" agent="Mozilla/5.0 (Windows NT 10.0; Win64; x64; rv:109.0) Gecko/20100101 Firefox/113.0" etag="wkXVs98mw316dngifOYh" version="21.2.3" type="device">
  <diagram name="Page-1" id="ya0CKT0qAcse2HXHP5nK">
    <mxGraphModel dx="2074" dy="1106" grid="1" gridSize="10" guides="1" tooltips="1" connect="1" arrows="1" fold="1" page="1" pageScale="1" pageWidth="827" pageHeight="1169" math="0" shadow="0">
      <root>
        <mxCell id="0" />
        <mxCell id="1" parent="0" />
        <mxCell id="TO1Vf6e0T0rvEtmI2LT_-51" value="" style="rounded=0;whiteSpace=wrap;html=1;" parent="1" vertex="1">
          <mxGeometry x="203" y="125" width="420" height="805" as="geometry" />
        </mxCell>
        <mxCell id="TO1Vf6e0T0rvEtmI2LT_-57" style="edgeStyle=orthogonalEdgeStyle;rounded=0;orthogonalLoop=1;jettySize=auto;html=1;entryX=0;entryY=0.5;entryDx=0;entryDy=0;endArrow=none;endFill=0;" parent="1" source="TO1Vf6e0T0rvEtmI2LT_-2" target="TO1Vf6e0T0rvEtmI2LT_-6" edge="1">
          <mxGeometry relative="1" as="geometry" />
        </mxCell>
        <mxCell id="TO1Vf6e0T0rvEtmI2LT_-2" value="Livreur" style="shape=umlActor;verticalLabelPosition=bottom;verticalAlign=top;html=1;outlineConnect=0;" parent="1" vertex="1">
          <mxGeometry x="100" y="180" width="30" height="60" as="geometry" />
        </mxCell>
        <mxCell id="TO1Vf6e0T0rvEtmI2LT_-5" value="Livraison d&#39;une commande" style="text;html=1;align=center;verticalAlign=middle;resizable=0;points=[];autosize=1;strokeColor=none;fillColor=none;strokeWidth=1;fontStyle=1;fontSize=16;" parent="1" vertex="1">
          <mxGeometry x="298" y="50" width="230" height="30" as="geometry" />
        </mxCell>
        <mxCell id="TO1Vf6e0T0rvEtmI2LT_-49" style="edgeStyle=orthogonalEdgeStyle;rounded=0;orthogonalLoop=1;jettySize=auto;html=1;exitX=1;exitY=0.5;exitDx=0;exitDy=0;entryX=0;entryY=0.5;entryDx=0;entryDy=0;dashed=1;" parent="1" source="TO1Vf6e0T0rvEtmI2LT_-6" target="TO1Vf6e0T0rvEtmI2LT_-47" edge="1">
          <mxGeometry relative="1" as="geometry" />
        </mxCell>
        <mxCell id="TO1Vf6e0T0rvEtmI2LT_-6" value="Se connecter" style="ellipse;whiteSpace=wrap;html=1;" parent="1" vertex="1">
          <mxGeometry x="263" y="170" width="120" height="80" as="geometry" />
        </mxCell>
        <mxCell id="n-M7yHOXfmhU8Cfsteu--4" style="edgeStyle=orthogonalEdgeStyle;rounded=0;orthogonalLoop=1;jettySize=auto;html=1;exitX=0.5;exitY=1;exitDx=0;exitDy=0;entryX=0.5;entryY=0;entryDx=0;entryDy=0;dashed=1;" edge="1" parent="1" source="TO1Vf6e0T0rvEtmI2LT_-7" target="n-M7yHOXfmhU8Cfsteu--3">
          <mxGeometry relative="1" as="geometry" />
        </mxCell>
        <mxCell id="n-M7yHOXfmhU8Cfsteu--5" style="edgeStyle=orthogonalEdgeStyle;rounded=0;orthogonalLoop=1;jettySize=auto;html=1;exitX=0.5;exitY=1;exitDx=0;exitDy=0;entryX=0.5;entryY=0;entryDx=0;entryDy=0;dashed=1;" edge="1" parent="1" source="TO1Vf6e0T0rvEtmI2LT_-7" target="n-M7yHOXfmhU8Cfsteu--2">
          <mxGeometry relative="1" as="geometry" />
        </mxCell>
        <mxCell id="TO1Vf6e0T0rvEtmI2LT_-7" value="Matcher une commande en statut &quot;en attente d&#39;un livreur&quot;" style="ellipse;whiteSpace=wrap;html=1;" parent="1" vertex="1">
          <mxGeometry x="443" y="300" width="120" height="80" as="geometry" />
        </mxCell>
        <mxCell id="TO1Vf6e0T0rvEtmI2LT_-21" style="edgeStyle=orthogonalEdgeStyle;rounded=0;orthogonalLoop=1;jettySize=auto;html=1;exitX=0.5;exitY=1;exitDx=0;exitDy=0;entryX=0.5;entryY=0;entryDx=0;entryDy=0;dashed=1;" parent="1" source="TO1Vf6e0T0rvEtmI2LT_-8" target="TO1Vf6e0T0rvEtmI2LT_-19" edge="1">
          <mxGeometry relative="1" as="geometry" />
        </mxCell>
        <mxCell id="TO1Vf6e0T0rvEtmI2LT_-8" value="&lt;div&gt;La commande&lt;/div&gt;&lt;div&gt;passe en statut&lt;/div&gt;&lt;div&gt;&quot;en cours de livraison&quot;&lt;/div&gt;" style="ellipse;whiteSpace=wrap;html=1;" parent="1" vertex="1">
          <mxGeometry x="443" y="560" width="120" height="80" as="geometry" />
        </mxCell>
        <mxCell id="TO1Vf6e0T0rvEtmI2LT_-10" value="&lt;div&gt;La commande&lt;/div&gt;&lt;div&gt;passe en statut&lt;/div&gt;&lt;div&gt;&quot;terminÃ©e&quot;&lt;br&gt;&lt;/div&gt;" style="ellipse;whiteSpace=wrap;html=1;" parent="1" vertex="1">
          <mxGeometry x="443" y="820" width="120" height="80" as="geometry" />
        </mxCell>
        <mxCell id="TO1Vf6e0T0rvEtmI2LT_-56" style="edgeStyle=orthogonalEdgeStyle;rounded=0;orthogonalLoop=1;jettySize=auto;html=1;exitX=0.5;exitY=1;exitDx=0;exitDy=0;entryX=0.5;entryY=0;entryDx=0;entryDy=0;dashed=1;" parent="1" source="TO1Vf6e0T0rvEtmI2LT_-19" target="TO1Vf6e0T0rvEtmI2LT_-10" edge="1">
          <mxGeometry relative="1" as="geometry" />
        </mxCell>
        <mxCell id="TO1Vf6e0T0rvEtmI2LT_-19" value="Livraison de la commande" style="ellipse;whiteSpace=wrap;html=1;" parent="1" vertex="1">
          <mxGeometry x="443" y="690" width="120" height="80" as="geometry" />
        </mxCell>
        <mxCell id="TO1Vf6e0T0rvEtmI2LT_-48" style="edgeStyle=orthogonalEdgeStyle;rounded=0;orthogonalLoop=1;jettySize=auto;html=1;exitX=0.5;exitY=1;exitDx=0;exitDy=0;entryX=0.5;entryY=0;entryDx=0;entryDy=0;dashed=1;" parent="1" source="TO1Vf6e0T0rvEtmI2LT_-47" target="TO1Vf6e0T0rvEtmI2LT_-7" edge="1">
          <mxGeometry relative="1" as="geometry" />
        </mxCell>
        <mxCell id="TO1Vf6e0T0rvEtmI2LT_-47" value="&lt;div&gt;Se mettre en&lt;/div&gt;&lt;div&gt;statut &quot;disponible pour livraison&quot;&lt;br&gt;&lt;/div&gt;" style="ellipse;whiteSpace=wrap;html=1;" parent="1" vertex="1">
          <mxGeometry x="443" y="170" width="120" height="80" as="geometry" />
        </mxCell>
        <mxCell id="TO1Vf6e0T0rvEtmI2LT_-52" value="Application" style="text;html=1;align=center;verticalAlign=middle;resizable=0;points=[];autosize=1;strokeColor=none;fillColor=none;" parent="1" vertex="1">
          <mxGeometry x="543" y="125" width="80" height="30" as="geometry" />
        </mxCell>
        <mxCell id="n-M7yHOXfmhU8Cfsteu--1" style="edgeStyle=orthogonalEdgeStyle;rounded=0;orthogonalLoop=1;jettySize=auto;html=1;entryX=1;entryY=0.5;entryDx=0;entryDy=0;endArrow=none;endFill=0;" edge="1" parent="1" source="TO1Vf6e0T0rvEtmI2LT_-58" target="TO1Vf6e0T0rvEtmI2LT_-7">
          <mxGeometry relative="1" as="geometry" />
        </mxCell>
        <mxCell id="TO1Vf6e0T0rvEtmI2LT_-58" value="&lt;div&gt;&amp;lt;&amp;lt;system&amp;gt;&amp;gt;&lt;/div&gt;&lt;div&gt;Localisation GPS&lt;br&gt;&lt;/div&gt;" style="text;html=1;align=center;verticalAlign=middle;resizable=0;points=[];autosize=1;strokeColor=none;fillColor=none;" parent="1" vertex="1">
          <mxGeometry x="660" y="320" width="120" height="40" as="geometry" />
        </mxCell>
        <mxCell id="TO1Vf6e0T0rvEtmI2LT_-61" value="Le livreur utilise l&#39;application pour effectuer une livraison." style="text;html=1;align=center;verticalAlign=middle;resizable=0;points=[];autosize=1;strokeColor=none;fillColor=none;" parent="1" vertex="1">
          <mxGeometry x="248" y="80" width="330" height="30" as="geometry" />
        </mxCell>
        <mxCell id="n-M7yHOXfmhU8Cfsteu--8" style="edgeStyle=orthogonalEdgeStyle;rounded=0;orthogonalLoop=1;jettySize=auto;html=1;exitX=0.5;exitY=1;exitDx=0;exitDy=0;entryX=0.5;entryY=0;entryDx=0;entryDy=0;dashed=1;" edge="1" parent="1" source="n-M7yHOXfmhU8Cfsteu--2" target="TO1Vf6e0T0rvEtmI2LT_-8">
          <mxGeometry relative="1" as="geometry" />
        </mxCell>
        <mxCell id="n-M7yHOXfmhU8Cfsteu--2" value="accepter la commande" style="ellipse;whiteSpace=wrap;html=1;" vertex="1" parent="1">
          <mxGeometry x="443" y="430" width="120" height="80" as="geometry" />
        </mxCell>
        <mxCell id="n-M7yHOXfmhU8Cfsteu--9" style="edgeStyle=orthogonalEdgeStyle;rounded=0;orthogonalLoop=1;jettySize=auto;html=1;exitX=0.5;exitY=1;exitDx=0;exitDy=0;entryX=0;entryY=0.5;entryDx=0;entryDy=0;dashed=1;" edge="1" parent="1" source="n-M7yHOXfmhU8Cfsteu--3" target="TO1Vf6e0T0rvEtmI2LT_-7">
          <mxGeometry relative="1" as="geometry">
            <Array as="points">
              <mxPoint x="323" y="560" />
              <mxPoint x="230" y="560" />
              <mxPoint x="230" y="340" />
            </Array>
          </mxGeometry>
        </mxCell>
        <mxCell id="n-M7yHOXfmhU8Cfsteu--3" value="refuser la commande" style="ellipse;whiteSpace=wrap;html=1;" vertex="1" parent="1">
          <mxGeometry x="263" y="430" width="120" height="80" as="geometry" />
        </mxCell>
      </root>
    </mxGraphModel>
  </diagram>
</mxfile>
